<svg width="51" height="51" viewBox="0 0 51 51" fill="none" xmlns="http://www.w3.org/2000/svg">
<path d="M33.7661 10.3593H29.6822C28.6582 10.3014 27.6336 10.4638 26.6777 10.8356C25.7219 11.2074 24.8568 11.7798 24.141 12.5144C23.4252 13.249 22.8753 14.1285 22.5283 15.0937C22.1814 16.0589 22.0455 17.0873 22.1299 18.1094V21.6894H18.024C17.8535 21.6894 17.6901 21.7571 17.5696 21.8776C17.4491 21.9982 17.3813 22.1616 17.3813 22.332V27.5101C17.3813 27.6805 17.4491 27.844 17.5696 27.9645C17.6901 28.085 17.8535 28.1527 18.024 28.1527H22.1299V41.2179C22.1299 41.3883 22.1976 41.5518 22.3181 41.6723C22.4386 41.7928 22.602 41.8605 22.7725 41.8605H28.1298C28.3002 41.8605 28.4637 41.7928 28.5842 41.6723C28.7047 41.5518 28.7724 41.3883 28.7724 41.2179V28.1459H33.5733C33.6577 28.1459 33.7413 28.1293 33.8192 28.097C33.8972 28.0647 33.968 28.0174 34.0277 27.9577C34.0874 27.898 34.1347 27.8272 34.167 27.7492C34.1993 27.6713 34.2159 27.5877 34.2159 27.5033V22.3253C34.2159 22.1548 34.1482 21.9914 34.0277 21.8709C33.9072 21.7504 33.7438 21.6827 33.5733 21.6827H28.7707V18.6455C28.7707 17.1895 29.1174 16.4471 31.0147 16.4471H33.7661C33.9365 16.4471 34.1 16.3794 34.2205 16.2589C34.341 16.1384 34.4087 15.9749 34.4087 15.8045V11.0086C34.4096 10.9237 34.3936 10.8394 34.3618 10.7606C34.3299 10.6819 34.2827 10.6103 34.2229 10.5499C34.1631 10.4895 34.092 10.4415 34.0136 10.4088C33.9352 10.3761 33.8511 10.3593 33.7661 10.3593Z" fill="#FCFDFE"/>
<rect x="1" y="1" width="49" height="49" rx="9" fill="white" fill-opacity="0.47" stroke="white" stroke-width="2"/>
</svg>
