<svg width="51" height="51" viewBox="0 0 51 51" fill="none" xmlns="http://www.w3.org/2000/svg">
<rect x="1" y="1" width="49" height="49" rx="9" fill="white" fill-opacity="0.47" stroke="white" stroke-width="2"/>
<path d="M41.2379 19.4527C41.2128 18.1688 40.9694 16.8985 40.518 15.6962C40.1188 14.6667 39.5091 13.7319 38.7279 12.9516C37.9466 12.1713 37.0111 11.5626 35.9812 11.1645C34.7788 10.7137 33.5086 10.4703 32.2247 10.4447C30.567 10.3669 30.041 10.3478 25.8381 10.3478C21.6352 10.3478 21.1057 10.3669 19.4533 10.4378C18.1693 10.4629 16.899 10.7063 15.6968 11.1576C14.6619 11.5449 13.7245 12.1545 12.9508 12.9433C12.1642 13.7186 11.5555 14.6556 11.1668 15.6893C10.7131 16.8912 10.4667 18.1614 10.4383 19.4458C10.3674 21.1034 10.3501 21.6295 10.3501 25.8341C10.3501 30.0388 10.3674 30.5648 10.4383 32.2172C10.4639 33.5013 10.7079 34.7716 11.1599 35.9737C11.5584 37.0028 12.1673 37.9373 12.9477 38.7176C13.728 39.4979 14.6625 40.1068 15.6916 40.5054C16.894 40.9562 18.1642 41.1996 19.4481 41.2252C21.0988 41.2979 21.6265 41.3152 25.8294 41.3152C30.0324 41.3152 30.5601 41.2979 32.2108 41.2252C33.4948 41.2002 34.7651 40.9568 35.9673 40.5054C36.9967 40.1074 37.9315 39.4987 38.7119 38.7183C39.4923 37.9379 40.101 37.0031 40.499 35.9737C40.9497 34.7713 41.1931 33.5011 41.2188 32.2172C41.2915 30.5665 41.3088 30.0388 41.3088 25.8358C41.3088 21.6329 41.3088 21.1052 41.2309 19.4545L41.2379 19.4527ZM38.4486 32.0961C38.4385 33.0777 38.2582 34.0502 37.9157 34.9701C37.6576 35.6384 37.2625 36.2454 36.756 36.752C36.2494 37.2585 35.6424 37.6536 34.9741 37.9117C34.054 38.2536 33.0817 38.4339 32.1001 38.4446C30.4667 38.5173 29.977 38.5346 25.845 38.5346C21.713 38.5346 21.2164 38.5173 19.5899 38.4446C18.6083 38.4347 17.6358 38.2544 16.7159 37.9117C16.0435 37.6644 15.4355 37.2688 14.9371 36.7541C14.4244 36.2545 14.0295 35.6468 13.7813 34.9753C13.4394 34.0552 13.2591 33.0829 13.2484 32.1013C13.1757 30.4679 13.1584 29.9782 13.1584 25.8462C13.1584 21.7142 13.1757 21.2176 13.2484 19.5912C13.2583 18.6095 13.4386 17.637 13.7813 16.7171C14.0264 16.0446 14.4217 15.4368 14.9371 14.9401C15.4376 14.4267 16.0465 14.0318 16.7194 13.7842C17.6395 13.4424 18.6119 13.2621 19.5934 13.2513C21.2268 13.1786 21.7165 13.1613 25.8485 13.1613C29.9805 13.1613 30.4771 13.1804 32.1035 13.2513C33.0852 13.2614 34.0576 13.4417 34.9776 13.7842C35.6499 14.0309 36.2579 14.426 36.7563 14.9401C37.2691 15.4397 37.664 16.0473 37.9122 16.7188C38.254 17.639 38.4343 18.6113 38.4451 19.5929C38.5178 21.2263 38.5351 21.716 38.5351 25.848C38.5351 29.9799 38.5161 30.4644 38.4451 32.0978L38.4486 32.0961Z" fill="#FCFDFE"/>
<path d="M25.8364 17.8799C24.2622 17.8799 22.7233 18.3467 21.4144 19.2213C20.1054 20.0959 19.0853 21.339 18.4828 22.7934C17.8804 24.2478 17.7228 25.8481 18.0299 27.3921C18.337 28.9361 19.0951 30.3543 20.2082 31.4675C21.3214 32.5806 22.7396 33.3387 24.2836 33.6458C25.8275 33.9529 27.4279 33.7953 28.8823 33.1928C30.3367 32.5904 31.5798 31.5702 32.4544 30.2613C33.329 28.9524 33.7958 27.4135 33.7958 25.8393C33.7958 23.7283 32.9572 21.7038 31.4646 20.2111C29.9719 18.7185 27.9473 17.8799 25.8364 17.8799ZM25.8364 30.9956C24.8159 30.9956 23.8183 30.693 22.9698 30.126C22.1212 29.5591 21.4599 28.7532 21.0694 27.8104C20.6788 26.8676 20.5767 25.8301 20.7757 24.8292C20.9748 23.8283 21.4663 22.9089 22.1879 22.1873C22.9095 21.4657 23.8289 20.9743 24.8298 20.7752C25.8307 20.5761 26.8681 20.6783 27.8109 21.0688C28.7538 21.4594 29.5596 22.1207 30.1266 22.9692C30.6936 23.8177 30.9962 24.8153 30.9962 25.8359C30.9957 27.2042 30.4519 28.5163 29.4844 29.4839C28.5169 30.4514 27.2047 30.9952 25.8364 30.9956Z" fill="#FCFDFE"/>
<path d="M35.9691 17.5649C35.9691 17.9322 35.8602 18.2911 35.6562 18.5964C35.4522 18.9017 35.1623 19.1397 34.823 19.2802C34.4837 19.4208 34.1104 19.4575 33.7503 19.3859C33.3901 19.3142 33.0593 19.1374 32.7997 18.8778C32.54 18.6181 32.3632 18.2873 32.2915 17.9271C32.2199 17.567 32.2567 17.1937 32.3972 16.8544C32.5377 16.5152 32.7757 16.2252 33.081 16.0212C33.3863 15.8172 33.7453 15.7083 34.1125 15.7083C34.6049 15.7083 35.0772 15.9039 35.4253 16.2521C35.7735 16.6003 35.9691 17.0725 35.9691 17.5649Z" fill="#FCFDFE"/>
</svg>
